<svg xmlns="http://www.w3.org/2000/svg" viewBox="0 0 222.38 42.7"><title>vaperanger-logo</title><path d="M75.76,63.9,69.82,91.82c-.06.39-.33.58-.8.58H64.59c-.47,0-.73-.19-.8-.58L57.86,63.9c-.07-.38.13-.58.6-.58h5.43a.66.66,0,0,1,.75.58l2.07,17.62h.2L69,63.9a.67.67,0,0,1,.75-.58h5.43C75.62,63.32,75.82,63.52,75.76,63.9Z" transform="translate(-14.65 -55.9)"/><path d="M92.4,91.82c.07.39-.14.58-.6.58H87.22a.65.65,0,0,1-.75-.58l-.41-4.49H83l-.41,4.49a.65.65,0,0,1-.75.58H77.21c-.47,0-.67-.19-.6-.58L80.38,63.9c.07-.38.34-.58.81-.58h6.63c.47,0,.74.2.81.58Zm-6.74-9.14-1-11.26H84.3l-1,11.26Z" transform="translate(-14.65 -55.9)"/><path d="M104,63.32a7.24,7.24,0,0,1,2.47.42,6.53,6.53,0,0,1,2,1.12,5.43,5.43,0,0,1,1.36,1.66,4.39,4.39,0,0,1,.5,2v6.77a4.35,4.35,0,0,1-.5,2A5.43,5.43,0,0,1,108.44,79a6.53,6.53,0,0,1-2,1.12,7.24,7.24,0,0,1-2.47.42H101.6V91.82c0,.39-.24.58-.7.58H96.42c-.47,0-.7-.19-.7-.58V63.9c0-.38.23-.58.7-.58Zm.46,5.44a.87.87,0,0,0-.36-.7,1.25,1.25,0,0,0-.85-.29H101.6v8.35h1.61a1.26,1.26,0,0,0,.85-.3.86.86,0,0,0,.36-.7Z" transform="translate(-14.65 -55.9)"/><path d="M125.88,88.12v3.7c0,.39-.23.58-.7.58H114.27c-.47,0-.7-.19-.7-.58V63.9c0-.38.23-.58.7-.58h10.91c.47,0,.7.2.7.58v3.7c0,.39-.23.58-.7.58h-5.73v6h5c.47,0,.7.2.7.58v3.7c0,.39-.23.58-.7.58h-5v8.52h5.73C125.65,87.54,125.88,87.73,125.88,88.12Z" transform="translate(-14.65 -55.9)"/><path d="M144.9,91.82c.1.39-.07.58-.5.58h-4.58a1.14,1.14,0,0,1-.58-.17.85.85,0,0,1-.37-.41l-3.68-10.18V92a.65.65,0,0,1-.7.42H130c-.47,0-.71-.19-.71-.58V63.9c0-.38.24-.58.71-.58h7.54a7.14,7.14,0,0,1,2.46.42,6.53,6.53,0,0,1,2,1.12,5.29,5.29,0,0,1,1.36,1.66,4.28,4.28,0,0,1,.5,2v6.77a4.42,4.42,0,0,1-.95,2.76A6.18,6.18,0,0,1,140.42,80Zm-9.71-15.7h1.61a1.29,1.29,0,0,0,.86-.3.88.88,0,0,0,.35-.7V68.76a.89.89,0,0,0-.35-.7,1.28,1.28,0,0,0-.86-.29h-1.61Z" transform="translate(-14.65 -55.9)"/><path d="M162.85,91.82c.07.39-.14.58-.61.58h-4.57a.65.65,0,0,1-.75-.58l-.41-4.49H153.4L153,91.82a.66.66,0,0,1-.75.58h-4.58c-.47,0-.67-.19-.6-.58l3.77-27.92c.07-.38.34-.58.81-.58h6.63c.47,0,.74.2.81.58Zm-6.74-9.14-1-11.26h-.41l-.95,11.26Z" transform="translate(-14.65 -55.9)"/><path d="M182.26,63.9V91.82c0,.39-.24.58-.71.58h-3.22a1.08,1.08,0,0,1-.57-.17.9.9,0,0,1-.38-.37l-5.33-13.75V91.82c0,.39-.24.58-.7.58h-4.48c-.47,0-.7-.19-.7-.58V63.9c0-.38.23-.58.7-.58h3.32a1.14,1.14,0,0,1,.58.17.87.87,0,0,1,.37.37l5.23,13.34V63.9c0-.38.24-.58.71-.58h4.47C182,63.32,182.26,63.52,182.26,63.9Z" transform="translate(-14.65 -55.9)"/><path d="M197,63.45a6.53,6.53,0,0,1,2,1.12,5.43,5.43,0,0,1,1.36,1.66,4.35,4.35,0,0,1,.5,2v1.33a.74.74,0,0,1-.65.75l-4.58,1.37c-.44.11-.65,0-.65-.41V68.47a.87.87,0,0,0-.36-.7,1.25,1.25,0,0,0-.85-.29h-.4a1.28,1.28,0,0,0-.86.29.89.89,0,0,0-.35.7V87.25a.89.89,0,0,0,.35.7,1.28,1.28,0,0,0,.86.29h.4a1.25,1.25,0,0,0,.85-.29.87.87,0,0,0,.36-.7v-7.4h-1.41V75.12h6.58c.47,0,.71.19.71.58V87.46a4.35,4.35,0,0,1-.5,2A5.43,5.43,0,0,1,199,91.15a6.53,6.53,0,0,1-2,1.12,7.2,7.2,0,0,1-2.47.42h-1.91a7.14,7.14,0,0,1-2.46-.42,6.53,6.53,0,0,1-2-1.12,5.43,5.43,0,0,1-1.36-1.66,4.24,4.24,0,0,1-.5-2V68.26a4.24,4.24,0,0,1,.5-2,5.43,5.43,0,0,1,1.36-1.66,6.53,6.53,0,0,1,2-1.12,7.14,7.14,0,0,1,2.46-.42h1.91A7.2,7.2,0,0,1,197,63.45Z" transform="translate(-14.65 -55.9)"/><path d="M217.2,88.12v3.7c0,.39-.24.58-.71.58H205.58c-.47,0-.7-.19-.7-.58V63.9c0-.38.23-.58.7-.58h10.91c.47,0,.71.2.71.58v3.7c0,.39-.24.58-.71.58h-5.73v6h5c.47,0,.7.2.7.58v3.7c0,.39-.23.58-.7.58h-5v8.52h5.73C217,87.54,217.2,87.73,217.2,88.12Z" transform="translate(-14.65 -55.9)"/><path d="M237,91.82c.1.39-.07.58-.5.58h-4.58a1.14,1.14,0,0,1-.58-.17.93.93,0,0,1-.38-.41L227.3,81.64V92a.65.65,0,0,1-.7.42h-4.47c-.47,0-.71-.19-.71-.58V63.9c0-.38.24-.58.71-.58h7.54a7.14,7.14,0,0,1,2.46.42,6.53,6.53,0,0,1,2,1.12,5.43,5.43,0,0,1,1.36,1.66,4.39,4.39,0,0,1,.5,2v6.77a4.42,4.42,0,0,1-.95,2.76A6.18,6.18,0,0,1,232.53,80Zm-9.71-15.7h1.61a1.29,1.29,0,0,0,.86-.3.88.88,0,0,0,.35-.7V68.76a.89.89,0,0,0-.35-.7,1.28,1.28,0,0,0-.86-.29H227.3Z" transform="translate(-14.65 -55.9)"/><path d="M56.31,58.44A3.27,3.27,0,0,0,55.2,56.7,3.13,3.13,0,0,0,53,55.91a1.83,1.83,0,0,0-1.3.64l-4,4.75a3.21,3.21,0,0,0-3,1,.21.21,0,0,1,0,.06L40.8,66.85q.2.14.39.3l.15-.17c0,.09,0,.2,0,.32a5.31,5.31,0,0,1,.44.4,3.14,3.14,0,0,1-.09-.71,3.31,3.31,0,0,0,.32.93l.57.61a3.85,3.85,0,0,1-.54-1.91,5.19,5.19,0,0,0,1.66,2.58,4.81,4.81,0,0,1-1.34-3,5.07,5.07,0,0,0,1.68,2.71A5,5,0,0,1,42.73,66a5.35,5.35,0,0,0,1.64,2.48A4.81,4.81,0,0,1,43,65.38a4.94,4.94,0,0,0,1.68,2.71,4.77,4.77,0,0,1-1.34-3.16,5,5,0,0,0,1.69,2.69,4.78,4.78,0,0,1-1.34-3.05A4.63,4.63,0,0,0,45.12,67a6.6,6.6,0,0,0,.74.76,5.24,5.24,0,0,0,3,1.27h.23a3.49,3.49,0,0,0,1-.16l-4.82,5.65a7.08,7.08,0,0,1-.48,1.15.61.61,0,0,0,.07.1l6.5-7.7,0-.06a3.16,3.16,0,0,0,.46-3.1l4-4.75A2,2,0,0,0,56.31,58.44ZM51.1,67.7a2.57,2.57,0,0,1-2.19.83l-.21,0a2.07,2.07,0,0,1-1.18-.64,4.08,4.08,0,0,0,1.16.32c-.32-.15-1.41-.63-1.56-1.09a3.38,3.38,0,0,0,1.46.48,2.92,2.92,0,0,1-1.81-1.46c.09.09.17.18.26.26a3.19,3.19,0,0,0,2.24.79,1.92,1.92,0,0,0,1.31-.64l1-1.15A2.6,2.6,0,0,1,51.1,67.7Zm-.86-1.45a1.39,1.39,0,0,1-1,.48A2.71,2.71,0,0,1,47.31,66a2.83,2.83,0,0,1-.92-1.38,4.33,4.33,0,0,1,0-.62A2.47,2.47,0,0,0,48.82,66a3.78,3.78,0,0,1-1.38-1.14v0a4.13,4.13,0,0,0,1.7.77,3.66,3.66,0,0,1-1.39-1.15v0a4,4,0,0,0,1.71.79A3.77,3.77,0,0,1,48.07,64h0a4.12,4.12,0,0,0,1.72.79,3.88,3.88,0,0,1-1.41-1.18h0a4,4,0,0,0,1.73.8,3.77,3.77,0,0,1-1.42-1.19h0a4.21,4.21,0,0,0,1.75.81A3.77,3.77,0,0,1,49,62.83h0a4.09,4.09,0,0,0,1.76.82,3.73,3.73,0,0,1-1.44-1.21,4,4,0,0,0,1.76.82,3.79,3.79,0,0,1-1.44-1.21,4.07,4.07,0,0,0,1.77.82A3.72,3.72,0,0,1,50,61.66a4.14,4.14,0,0,0,1.77.83,3.8,3.8,0,0,1-1.44-1.21,4.13,4.13,0,0,0,1.77.82,3.65,3.65,0,0,1-1.44-1.21,4,4,0,0,0,1.76.82A3.79,3.79,0,0,1,51,60.5a4.2,4.2,0,0,0,1.77.83,3.83,3.83,0,0,1-1.44-1.22,4,4,0,0,0,1.77.83,3.8,3.8,0,0,1-1.44-1.21,4,4,0,0,0,1.43.73,3,3,0,0,0,1.36.37,2,2,0,0,0,.43,0Zm4.81-6.7a1.35,1.35,0,0,1-1.44.25h0a1.94,1.94,0,0,0,1.24.45,1.56,1.56,0,0,1-.44.07,2.74,2.74,0,0,1-1.69-.67c-1-.81-1.25-2-.66-2.72a1.4,1.4,0,0,1,1.11-.46,2.84,2.84,0,0,1,2.6,2.16,1.93,1.93,0,0,0-.53-.66,2.21,2.21,0,0,0-.65-.36A1.4,1.4,0,0,1,55.05,59.55Z" transform="translate(-14.65 -55.9)"/><path d="M19.54,68l.05.06,4.69,5.55.25-.44-3.67-4.31a3.49,3.49,0,0,0,1,.16h.23a5.24,5.24,0,0,0,3-1.27A6.6,6.6,0,0,0,25.9,67a4.74,4.74,0,0,0,1.41-2.43A4.89,4.89,0,0,1,26,67.62a5,5,0,0,0,1.68-2.69,4.72,4.72,0,0,1-1.34,3.16A4.94,4.94,0,0,0,28,65.38a4.81,4.81,0,0,1-1.34,3.05A5.27,5.27,0,0,0,28.29,66,4.93,4.93,0,0,1,27,68.86a5,5,0,0,0,1.68-2.71,4.45,4.45,0,0,1-1,2.57c.18-.2.37-.4.56-.58A4,4,0,0,0,29,66.62a3.23,3.23,0,0,1-.15,1c.14-.11.27-.21.41-.3s.07-.25.09-.35c0,.1,0,.2,0,.31l.31-.18.08,0V67l.06.07.48-.21L26.4,62.32l0-.06a3.21,3.21,0,0,0-3-1l-4-4.75a1.83,1.83,0,0,0-1.3-.64,3.14,3.14,0,0,0-2.24.79,3.19,3.19,0,0,0-1.1,1.74,1.92,1.92,0,0,0,.35,1.73l4,4.75A3.16,3.16,0,0,0,19.54,68Zm4.36-.92c-.14.46-1.24.94-1.55,1.09a4.07,4.07,0,0,0,1.15-.32,2.07,2.07,0,0,1-1.18.64l-.21,0a2.42,2.42,0,0,1-2.64-3.15l1,1.15a1.87,1.87,0,0,0,1.3.64A3.19,3.19,0,0,0,24,66.38a2.13,2.13,0,0,0,.26-.26,2.92,2.92,0,0,1-1.81,1.46A3.38,3.38,0,0,0,23.9,67.1ZM16,59.55a1.4,1.4,0,0,1,.45-1.93,2.14,2.14,0,0,0-.66.36,1.93,1.93,0,0,0-.53.66,2.84,2.84,0,0,1,2.61-2.16,1.42,1.42,0,0,1,1.11.46c.58.69.28,1.91-.67,2.72a2.74,2.74,0,0,1-1.68.67,1.63,1.63,0,0,1-.45-.07,1.94,1.94,0,0,0,1.24-.45h0A1.35,1.35,0,0,1,16,59.55Zm.19,1.23a2.12,2.12,0,0,0,.44,0A3,3,0,0,0,18,60.46a3.88,3.88,0,0,0,1.43-.73,3.8,3.8,0,0,1-1.44,1.21,4,4,0,0,0,1.77-.83,3.83,3.83,0,0,1-1.44,1.22A4.14,4.14,0,0,0,20,60.5a3.72,3.72,0,0,1-1.44,1.21,4,4,0,0,0,1.76-.82,3.65,3.65,0,0,1-1.44,1.21,4.07,4.07,0,0,0,1.77-.82,3.8,3.8,0,0,1-1.44,1.21A4.14,4.14,0,0,0,21,61.66a3.72,3.72,0,0,1-1.44,1.21,4,4,0,0,0,1.77-.82,3.72,3.72,0,0,1-1.44,1.21,4,4,0,0,0,1.76-.82,3.73,3.73,0,0,1-1.44,1.21A4.09,4.09,0,0,0,22,62.83h0A3.77,3.77,0,0,1,20.56,64a4.21,4.21,0,0,0,1.75-.81h0a3.77,3.77,0,0,1-1.42,1.19,3.94,3.94,0,0,0,1.73-.8h0a3.8,3.8,0,0,1-1.41,1.18A4.12,4.12,0,0,0,22.94,64h0a3.77,3.77,0,0,1-1.41,1.17,4,4,0,0,0,1.71-.79v0a3.66,3.66,0,0,1-1.39,1.15,4.13,4.13,0,0,0,1.7-.77v0A3.7,3.7,0,0,1,22.2,66,2.47,2.47,0,0,0,24.65,64a3.24,3.24,0,0,1,0,.62A2.83,2.83,0,0,1,23.71,66a2.7,2.7,0,0,1-1.93.69,1.41,1.41,0,0,1-1-.48Z" transform="translate(-14.65 -55.9)"/><path d="M44,83.2a2.11,2.11,0,0,1-.36.37c0,.33,0,.67,0,1,0-.15.08-.28.1-.4a4,4,0,0,1-.15,1,5.4,5.4,0,0,1-.11.65,1.25,1.25,0,0,1-.1.29A4.15,4.15,0,0,0,44,84.71a5,5,0,0,1-1.33,2.92,5,5,0,0,0,1.68-2.71A4.81,4.81,0,0,1,43,88a5.13,5.13,0,0,0,1.66-2.59,4.78,4.78,0,0,1-1.33,3.08A5,5,0,0,0,45,85.75a4.81,4.81,0,0,1-1.34,3,5.39,5.39,0,0,0,1.6-2.35A5.13,5.13,0,0,1,44,89.17a4.94,4.94,0,0,0,1.68-2.71,4.79,4.79,0,0,1-1.33,3.05A5.31,5.31,0,0,0,46,87a4.93,4.93,0,0,1-1.33,2.91,5,5,0,0,0,1.68-2.71A4.86,4.86,0,0,1,45,90.29a5.17,5.17,0,0,0,1.66-2.59,4.78,4.78,0,0,1-1.33,3.08A5.11,5.11,0,0,0,47,88.07a4.83,4.83,0,0,1-1.34,3.05,5.27,5.27,0,0,0,1.64-2.52A5,5,0,0,1,46,91.45a5,5,0,0,0,1.69-2.7,4.89,4.89,0,0,1-1.34,3,5.33,5.33,0,0,0,1.63-2.49,4.93,4.93,0,0,1-1.33,2.91,4.93,4.93,0,0,0,1.68-2.7,4.83,4.83,0,0,1-1.34,3A5.17,5.17,0,0,0,48.6,90a4.78,4.78,0,0,1-1.33,3.08A5,5,0,0,0,49,90.35a4.81,4.81,0,0,1-1.34,3.05,5,5,0,0,0,1.68-2.7A4.82,4.82,0,0,1,48,93.8a5,5,0,0,0,1.69-2.71,4.81,4.81,0,0,1-1.34,3,5.35,5.35,0,0,0,1.64-2.48,5,5,0,0,1-1.34,2.91,4.94,4.94,0,0,0,1.68-2.71A4.83,4.83,0,0,1,49,94.92a5.25,5.25,0,0,0,1.66-2.59,4.86,4.86,0,0,1-1.34,3.08A5,5,0,0,0,51,92.7a4.83,4.83,0,0,1-1.34,3,5.15,5.15,0,0,0,1.66-2.58,4,4,0,0,1-1.56,3.68A4.56,4.56,0,0,1,46.87,98,2.35,2.35,0,0,1,45,97.2L39.69,91h0a1.92,1.92,0,0,1-.48.32l5.34,6.33c1.2,1.42,3.7,1.28,5.58-.31s2.43-4,1.24-5.44Z" transform="translate(-14.65 -55.9)"/><path d="M31.24,91.06,26,97.2a2.35,2.35,0,0,1-1.85.77,4.51,4.51,0,0,1-2.83-1.12,4,4,0,0,1-1.57-3.68,5.15,5.15,0,0,0,1.66,2.58,4.83,4.83,0,0,1-1.34-3,5,5,0,0,0,1.68,2.71,4.86,4.86,0,0,1-1.34-3.08,5.21,5.21,0,0,0,1.67,2.59,4.86,4.86,0,0,1-1.34-3.06,4.94,4.94,0,0,0,1.68,2.71,4.93,4.93,0,0,1-1.33-2.91,5.23,5.23,0,0,0,1.63,2.48,4.81,4.81,0,0,1-1.34-3,5,5,0,0,0,1.69,2.71,4.82,4.82,0,0,1-1.34-3.1,5.05,5.05,0,0,0,1.68,2.7,4.81,4.81,0,0,1-1.34-3.05,5.07,5.07,0,0,0,1.68,2.71A4.78,4.78,0,0,1,22.42,90a5.17,5.17,0,0,0,1.66,2.59,4.83,4.83,0,0,1-1.34-3,5,5,0,0,0,1.68,2.7,4.93,4.93,0,0,1-1.33-2.91,5.33,5.33,0,0,0,1.63,2.49,4.81,4.81,0,0,1-1.33-3,4.93,4.93,0,0,0,1.68,2.7,5,5,0,0,1-1.33-2.85,5.27,5.27,0,0,0,1.64,2.52A4.83,4.83,0,0,1,24,88.07a5.08,5.08,0,0,0,1.69,2.71,4.75,4.75,0,0,1-1.34-3.08,5.17,5.17,0,0,0,1.66,2.59,4.86,4.86,0,0,1-1.34-3.06,5,5,0,0,0,1.68,2.71A4.93,4.93,0,0,1,25.06,87a5.27,5.27,0,0,0,1.64,2.48,4.81,4.81,0,0,1-1.34-3.05A4.94,4.94,0,0,0,27,89.17a5.13,5.13,0,0,1-1.32-2.72,5.58,5.58,0,0,0,1.6,2.35,4.81,4.81,0,0,1-1.34-3,5,5,0,0,0,1.69,2.71,4.75,4.75,0,0,1-1.34-3.08A5.13,5.13,0,0,0,28,88a4.81,4.81,0,0,1-1.34-3,5,5,0,0,0,1.68,2.71A5,5,0,0,1,27,84.71a3.3,3.3,0,0,0,.28.74c-.07-.48-.12-1.18-.15-1.88a1.88,1.88,0,0,1-.25-.24l-7.21,8.54c-1.2,1.41-.65,3.85,1.23,5.44s4.38,1.73,5.58.31l5.28-6.25A2.47,2.47,0,0,1,31.24,91.06Z" transform="translate(-14.65 -55.9)"/><path d="M35.41,77h0Z" transform="translate(-14.65 -55.9)"/><path d="M35.41,77Z" transform="translate(-14.65 -55.9)"/><path d="M43.92,76.56a.18.18,0,0,0-.24-.06l0,0a.18.18,0,0,1-.24,0l0-1.24h0a6.22,6.22,0,0,0,.87-2.33c-.1-.67-3-4.88-4.88-5.7s-7.12-.27-9.22.82-5.69,7.11-5.82,8.47,1.83,1.15,1.83,1.15l.42-.33.09,2.17,0,.15,1,2.48a.45.45,0,0,0,.31.26l.12,0a.46.46,0,0,1,.33.37,24.2,24.2,0,0,0,.19,2.76,52,52,0,0,0,3.45,4.57.42.42,0,0,0,.16.09,12.5,12.5,0,0,0,3.11.92h0a12.64,12.64,0,0,0,3.11-.92.51.51,0,0,0,.16-.09,54,54,0,0,0,3.45-4.57,26.23,26.23,0,0,0,.18-2.76.46.46,0,0,1,.34-.37l.12,0a.43.43,0,0,0,.3-.26l1-2.48,0-.15.09-2.26a.46.46,0,0,0-.06-.23ZM38.22,86a4.4,4.4,0,0,1-.65-.22,12.33,12.33,0,0,1-2.11.24h-.15a11.56,11.56,0,0,1-2.16-.32h0l-.59.31a.88.88,0,0,1-.87-.34,2.24,2.24,0,0,1-.14-.76,5.62,5.62,0,0,1,3.62-1.77.67.67,0,0,0,.26.09.43.43,0,0,0,.24-.08A5.71,5.71,0,0,1,39.23,85a2,2,0,0,1-.1.58A1.12,1.12,0,0,1,38.22,86Zm3.17-5.17a4.41,4.41,0,0,1-1.17,1.26.59.59,0,0,0-.36.14,1.78,1.78,0,0,1-2.46-.32h0l0,0-.05,0-.68.12-.21-.17a2.94,2.94,0,0,1-.95.4h-.21a2.94,2.94,0,0,1-1-.4l-.21.17-.69-.11v0h0a2,2,0,0,1-2.62.3.71.71,0,0,0-.21-.11,4.49,4.49,0,0,1-1.2-1.29,9.46,9.46,0,0,1-.4-2.67,4.33,4.33,0,0,0,1.78,1.28,6.16,6.16,0,0,0,2.76.31c.56-.22,1.35-1.43,1.35-1.43s.28-.48.52-.5.52.5.52.5.8,1.21,1.35,1.43A6.2,6.2,0,0,0,40,79.41a4.39,4.39,0,0,0,1.78-1.28A9.78,9.78,0,0,1,41.39,80.8Zm.46-4.43a12.72,12.72,0,0,0-2.66.18c-1.33.14-2.11.73-3.11.74a2.36,2.36,0,0,0-.69-.28h0a2.17,2.17,0,0,0-.69.28c-1,0-1.79-.6-3.11-.74a12.78,12.78,0,0,0-2.67-.18s-.46-.19.23-1c2.47-1.77,5.82-4,7.46-4.11-2.78,1-5.39,4.07-5.39,4.07l9.95-.09A1.13,1.13,0,0,1,41.85,76.37Z" transform="translate(-14.65 -55.9)"/></svg>